<svg width="20" height="20" fill="none" xmlns="http://www.w3.org/2000/svg"><path fill-rule="evenodd" clip-rule="evenodd" d="M16.694 6.694c0 1.112-.434 2.376-1.216 3.786-.498.898-1.128 1.838-1.861 2.803a38.548 38.548 0 01-2.972 3.452.909.909 0 01-1.29 0 36.68 36.68 0 01-.934-.999 38.523 38.523 0 01-2.037-2.453c-.734-.965-1.364-1.905-1.862-2.803-.782-1.41-1.216-2.674-1.216-3.786C3.306 2.794 6.406 0 10 0c3.595 0 6.694 2.794 6.694 6.694zm-6.466 7.826a36.724 36.724 0 001.94-2.336c.685-.901 1.269-1.771 1.72-2.586.646-1.164.988-2.16.988-2.904 0-2.851-2.246-4.876-4.876-4.876-2.63 0-4.876 2.025-4.876 4.876 0 .744.342 1.74.988 2.904.452.815 1.035 1.685 1.72 2.586A36.748 36.748 0 0010 14.77l.228-.251zm-2.79-7.826a2.562 2.562 0 105.124 0 2.562 2.562 0 00-5.124 0zM10 7.438a.744.744 0 100-1.488.744.744 0 000 1.488zm4.064 6.936a.91.91 0 00.736 1.054c1.168.208 2.122.487 2.756.8.347.17.526.31.593.362.023.017.033.025.033.022 0 .553-3.727 1.57-8.182 1.57-4.454 0-8.182-1.017-8.182-1.57 0 .003.01-.005.033-.022.067-.052.246-.192.593-.363.634-.312 1.588-.591 2.756-.799a.909.909 0 10-.318-1.79C1.878 14.172 0 15.097 0 16.612 0 18.797 4.413 20 10 20s10-1.203 10-3.388c0-1.515-1.878-2.44-4.882-2.974a.91.91 0 00-1.054.736z" fill="#0096FF"/><mask id="mask0" maskUnits="userSpaceOnUse" x="0" y="0" width="20" height="20"><path fill-rule="evenodd" clip-rule="evenodd" d="M16.694 6.694c0 1.112-.434 2.376-1.216 3.786-.498.898-1.128 1.838-1.861 2.803a38.548 38.548 0 01-2.972 3.452.909.909 0 01-1.29 0 36.68 36.68 0 01-.934-.999 38.523 38.523 0 01-2.037-2.453c-.734-.965-1.364-1.905-1.862-2.803-.782-1.41-1.216-2.674-1.216-3.786C3.306 2.794 6.406 0 10 0c3.595 0 6.694 2.794 6.694 6.694zm-6.466 7.826a36.724 36.724 0 001.94-2.336c.685-.901 1.269-1.771 1.72-2.586.646-1.164.988-2.16.988-2.904 0-2.851-2.246-4.876-4.876-4.876-2.63 0-4.876 2.025-4.876 4.876 0 .744.342 1.74.988 2.904.452.815 1.035 1.685 1.72 2.586A36.748 36.748 0 0010 14.77l.228-.251zm-2.79-7.826a2.562 2.562 0 105.124 0 2.562 2.562 0 00-5.124 0zM10 7.438a.744.744 0 100-1.488.744.744 0 000 1.488zm4.064 6.936a.91.91 0 00.736 1.054c1.168.208 2.122.487 2.756.8.347.17.526.31.593.362.023.017.033.025.033.022 0 .553-3.727 1.57-8.182 1.57-4.454 0-8.182-1.017-8.182-1.57 0 .003.01-.005.033-.022.067-.052.246-.192.593-.363.634-.312 1.588-.591 2.756-.799a.909.909 0 10-.318-1.79C1.878 14.172 0 15.097 0 16.612 0 18.797 4.413 20 10 20s10-1.203 10-3.388c0-1.515-1.878-2.44-4.882-2.974a.91.91 0 00-1.054.736z" fill="#fff"/></mask></svg>