<svg width="20" height="20" fill="none" xmlns="http://www.w3.org/2000/svg"><path fill-rule="evenodd" clip-rule="evenodd" d="M11.667 1.667a.833.833 0 110-1.667A8.333 8.333 0 0120 8.333a.833.833 0 11-1.667 0 6.666 6.666 0 00-6.666-6.666zm1.91 10.244l-1.91 1.91-5.488-5.488 1.91-1.91a.833.833 0 000-1.179L3.923 1.077a.833.833 0 00-1.179 0l-2.5 2.5a.833.833 0 00-.244.59C0 12.91 7.089 20 15.833 20a.833.833 0 00.59-.244l2.5-2.5a.833.833 0 000-1.179l-4.167-4.166a.833.833 0 00-1.179 0zm-2.5 3.678a.833.833 0 001.179 0l1.91-1.91 2.989 2.988-1.663 1.662C7.94 18.151 1.85 12.061 1.671 4.508l1.662-1.663 2.988 2.988-1.91 1.911a.833.833 0 000 1.179l6.666 6.666zm-.244-11.422c0 .46.373.833.834.833A3.334 3.334 0 0115 8.333a.833.833 0 101.667 0 5 5 0 00-5-5 .833.833 0 00-.834.834z" fill="#0096FF"/><mask id="mask0" maskUnits="userSpaceOnUse" x="0" y="0" width="20" height="20"><path fill-rule="evenodd" clip-rule="evenodd" d="M11.667 1.667a.833.833 0 110-1.667A8.333 8.333 0 0120 8.333a.833.833 0 11-1.667 0 6.666 6.666 0 00-6.666-6.666zm1.91 10.244l-1.91 1.91-5.488-5.488 1.91-1.91a.833.833 0 000-1.179L3.923 1.077a.833.833 0 00-1.179 0l-2.5 2.5a.833.833 0 00-.244.59C0 12.91 7.089 20 15.833 20a.833.833 0 00.59-.244l2.5-2.5a.833.833 0 000-1.179l-4.167-4.166a.833.833 0 00-1.179 0zm-2.5 3.678a.833.833 0 001.179 0l1.91-1.91 2.989 2.988-1.663 1.662C7.94 18.151 1.85 12.061 1.671 4.508l1.662-1.663 2.988 2.988-1.91 1.911a.833.833 0 000 1.179l6.666 6.666zm-.244-11.422c0 .46.373.833.834.833A3.334 3.334 0 0115 8.333a.833.833 0 101.667 0 5 5 0 00-5-5 .833.833 0 00-.834.834z" fill="#fff"/></mask></svg>