<svg width="20" height="20" fill="none" xmlns="http://www.w3.org/2000/svg"><path fill-rule="evenodd" clip-rule="evenodd" d="M7.624 1.818c-.481 0-.872-.407-.872-.909S7.142 0 7.624 0H10c-.481 0-.871.407-.871.91v.826a.96.96 0 00.003.082H7.624zm3.244 0c-.04.464-.414.827-.868.827s-.828-.363-.868-.827h1.736zm0 0a.94.94 0 00.003-.082V.909C10.871.407 10.481 0 10 0h2.376c.481 0 .872.407.872.91 0 .501-.39.908-.872.908h-1.508zM10 20c-4.418 0-8-3.737-8-8.347 0-4.61 3.582-8.347 8-8.347s8 3.737 8 8.347C18 16.263 14.418 20 10 20zm3.168-9.256c.482 0 .872.407.872.909s-.39.909-.872.909H10c-.481 0-.871-.407-.871-.91V8.348c0-.502.39-.909.871-.909s.871.407.871.91v2.396h2.297zm3.09.909c0 3.606-2.802 6.529-6.258 6.529s-6.257-2.923-6.257-6.53c0-3.605 2.801-6.528 6.257-6.528 3.456 0 6.257 2.923 6.257 6.529z" fill="#0096FF"/><mask id="mask0" maskUnits="userSpaceOnUse" x="2" y="0" width="16" height="20"><path fill-rule="evenodd" clip-rule="evenodd" d="M7.624 1.818c-.481 0-.872-.407-.872-.909S7.142 0 7.624 0H10c-.481 0-.871.407-.871.91v.826a.96.96 0 00.003.082H7.624zm3.244 0c-.04.464-.414.827-.868.827s-.828-.363-.868-.827h1.736zm0 0a.94.94 0 00.003-.082V.909C10.871.407 10.481 0 10 0h2.376c.481 0 .872.407.872.91 0 .501-.39.908-.872.908h-1.508zM10 20c-4.418 0-8-3.737-8-8.347 0-4.61 3.582-8.347 8-8.347s8 3.737 8 8.347C18 16.263 14.418 20 10 20zm3.168-9.256c.482 0 .872.407.872.909s-.39.909-.872.909H10c-.481 0-.871-.407-.871-.91V8.348c0-.502.39-.909.871-.909s.871.407.871.91v2.396h2.297zm3.09.909c0 3.606-2.802 6.529-6.258 6.529s-6.257-2.923-6.257-6.53c0-3.605 2.801-6.528 6.257-6.528 3.456 0 6.257 2.923 6.257 6.529z" fill="#fff"/></mask></svg>