<svg width="17" height="14" fill="none" xmlns="http://www.w3.org/2000/svg"><path d="M16.28 2.011a6.774 6.774 0 01-1.911.538 3.375 3.375 0 001.46-1.884c-.642.393-1.35.67-2.104.825A3.285 3.285 0 0011.3.412c-1.837 0-3.316 1.532-3.316 3.41 0 .27.022.53.077.777-2.76-.138-5.2-1.497-6.84-3.566a3.504 3.504 0 00-.454 1.723A3.44 3.44 0 002.242 5.59a3.21 3.21 0 01-1.5-.42v.038c0 1.656 1.15 3.032 2.66 3.35a3.271 3.271 0 01-.87.111c-.213 0-.428-.012-.63-.058.43 1.35 1.65 2.343 3.101 2.375a6.556 6.556 0 01-4.908 1.407 9.162 9.162 0 005.09 1.53c6.107 0 9.445-5.196 9.445-9.7 0-.151-.005-.297-.012-.441a6.723 6.723 0 001.663-1.77z" fill="#0096FF"/></svg>