<svg width="106" height="17" fill="none" xmlns="http://www.w3.org/2000/svg"><path fill-rule="evenodd" clip-rule="evenodd" d="M84 14c2.49 0 4.46-2.69 4.46-6V0h2v8c0 4.4-2.88 7.95-6.42 7.95S77.62 12.4 77.62 8V0h2v8c-.08 3.36 1.89 6.05 4.37 6.05L84 14zm-48.17 2.07h-2v-1.43a7.69 7.69 0 01-4.4 1.39 8 8 0 116-13.23l-1.47 1.31a6 6 0 10-4.46 10 5.77 5.77 0 004.38-2h-5.4v-2h7.37l-.02 5.96zM2 .13H0v15.92h8v-2H2V.13zm12.23 12a6 6 0 100-12 6 6 0 000 12zm0-2a4 4 0 10-4-4 4 4 0 004 3.98v.02zm4 5.94v-2h-8v2h8zm30.96-9.9a6 6 0 00-6-6l.02-.04a6 6 0 00-6.02 6.04 6 6 0 0012 0zm-6 4a4 4 0 10-4-4 4 4 0 004.02 3.94l-.02.06zm4 5.94v-2h-8v2h8zM51.32.13h2v15.9h-2V.13zm6.77 0h-2v15.93h2v-4h.31a6 6 0 100-11.93 1.47 1.47 0 00-.31 0zm0 2v.047l-.01.003.01-.05zm0 .047c.1-.034.205-.056.31-.067a4 4 0 110 7.93h-.31V2.177zm14.377-.87l.033-.027-.01.05-.023-.024zM69.68.18a3.74 3.74 0 012.787 1.126L71.02 2.45a1.94 1.94 0 00-3.33 1.13v.16c0 .88.61 1.47 1.8 1.55 4.58.28 6.68 2.43 6.68 5.27v.18A5.9 5.9 0 0166 14.16l1.53-1.18a3.6 3.6 0 002.8 1.14 3.74 3.74 0 003.92-3.38v-.14c0-2.67-2.62-3.16-4.89-3.38-2.1-.2-3.61-1.51-3.61-3.4v-.08A3.85 3.85 0 0169.68.18zM103.81 16h2L105.79.13l-6.6 8.69-6.6-8.69v15.9h2V6.1l4.61 6 4.61-6V16z" fill="#000"/></svg>