<svg width="16" height="14" fill="none" xmlns="http://www.w3.org/2000/svg"><path fill-rule="evenodd" clip-rule="evenodd" d="M7.52 4.005l.034.554-.56-.068C4.959 4.23 3.179 3.35 1.669 1.87l-.74-.735-.19.543c-.402 1.209-.145 2.485.695 3.344.447.475.346.542-.426.26-.268-.09-.503-.158-.526-.124-.078.079.19 1.107.403 1.514.291.565.884 1.118 1.533 1.446l.549.26-.65.011c-.626 0-.648.011-.581.249.224.734 1.108 1.514 2.093 1.853l.693.237-.604.361a6.302 6.302 0 01-3 .836c-.503.012-.917.057-.917.09 0 .114 1.365.747 2.16.995 2.384.735 5.215.418 7.342-.836 1.51-.893 3.021-2.666 3.727-4.384.38-.915.76-2.587.76-3.39 0-.52.034-.587.66-1.208.37-.362.717-.757.784-.87.112-.215.101-.215-.47-.023-.951.339-1.085.294-.615-.215.347-.361.76-1.017.76-1.209 0-.034-.167.023-.357.125-.202.113-.65.282-.985.384l-.605.192-.548-.373c-.302-.203-.727-.43-.951-.497C11.09.548 10.218.57 9.703.75c-1.399.509-2.283 1.82-2.182 3.254z" fill="#0096FF"/></svg>