<svg width="11" height="11" fill="none" xmlns="http://www.w3.org/2000/svg"><path d="M7.92 0H3.017C1.354 0 0 1.284 0 2.861v4.646c0 1.578 1.354 2.862 3.018 2.862H7.92c1.665 0 3.019-1.284 3.019-2.862V2.861C10.938 1.284 9.584 0 7.919 0zm2.048 7.507c0 1.07-.92 1.942-2.048 1.942H3.018C1.89 9.449.97 8.578.97 7.507V2.861C.97 1.791 1.89.92 3.018.92H7.92c1.13 0 2.049.87 2.049 1.941v4.646z" fill="#fff"/><path d="M5.469 2.513c-1.554 0-2.819 1.198-2.819 2.672 0 1.473 1.265 2.671 2.819 2.671s2.818-1.198 2.818-2.671c0-1.474-1.264-2.672-2.818-2.672zm0 4.423c-1.02 0-1.848-.785-1.848-1.751 0-.966.829-1.752 1.848-1.752 1.019 0 1.848.786 1.848 1.752s-.83 1.751-1.848 1.751zm2.937-5.204a.735.735 0 00-.503.198.66.66 0 00-.209.477c0 .178.077.352.21.478a.738.738 0 001.005 0 .662.662 0 00.209-.478.66.66 0 00-.209-.477.735.735 0 00-.503-.198z" fill="#fff"/></svg>