<svg width="12" height="10" fill="none" xmlns="http://www.w3.org/2000/svg"><path d="M12 1.122c-.446.19-.922.317-1.418.378.51-.296.9-.761 1.083-1.322-.476.276-1 .47-1.56.579A2.498 2.498 0 008.308 0C6.946 0 5.849 1.075 5.849 2.393c0 .19.017.372.057.545A7.03 7.03 0 01.836.436a2.358 2.358 0 00-.337 1.21 2.38 2.38 0 001.092 1.987A2.483 2.483 0 01.48 3.338v.027c0 1.162.853 2.128 1.971 2.35-.2.053-.418.079-.645.079-.157 0-.317-.009-.466-.041a2.476 2.476 0 002.3 1.666 5.033 5.033 0 01-3.05 1.02c-.202 0-.395-.008-.589-.032A7.07 7.07 0 003.774 9.48c4.527 0 7.002-3.646 7.002-6.807a5.88 5.88 0 00-.009-.309A4.836 4.836 0 0012 1.122z" fill="#fff"/></svg>