<svg width="13" height="10" fill="none" xmlns="http://www.w3.org/2000/svg"><path d="M8.358 4.261L5.4 2.508a.387.387 0 00-.375-.01.348.348 0 00-.19.307v3.506c0 .128.072.245.19.307a.386.386 0 00.375-.01l2.96-1.752a.347.347 0 00.173-.298.347.347 0 00-.174-.297zM5.573 5.679V3.438l1.891 1.12-1.89 1.12z" fill="#fff"/><path d="M10.776 0H1.85C.83 0 0 .786 0 1.753v5.61c0 .967.83 1.754 1.85 1.754h8.926c1.02 0 1.85-.787 1.85-1.754v-5.61c0-.967-.83-1.753-1.85-1.753zm1.11 7.363c0 .58-.498 1.052-1.11 1.052H1.85c-.611 0-1.11-.471-1.11-1.052v-5.61c0-.58.499-1.052 1.11-1.052h8.927c.612 0 1.11.472 1.11 1.052v5.61z" fill="#fff"/></svg>