<svg width="12" height="12" fill="none" xmlns="http://www.w3.org/2000/svg"><path fill-rule="evenodd" clip-rule="evenodd" d="M10.97 6.671c1.375-1.457 1.375-3.82 0-5.278C9.598-.06 7.377-.064 6 1.383c-1.376-1.447-3.597-1.444-4.969.01-1.375 1.458-1.375 3.82 0 5.278l4.583 4.86a.524.524 0 00.771 0l4.584-4.86zm-.772-.817L6 10.304l-4.196-4.45c-.95-1.006-.95-2.637 0-3.643a2.334 2.334 0 013.436 0c.114.12.216.254.306.398a.529.529 0 00.91 0 2.55 2.55 0 01.306-.398 2.334 2.334 0 013.436 0c.95 1.006.95 2.637 0 3.643z" fill="#2296F9"/><mask id="mask0" maskUnits="userSpaceOnUse" x="0" y="0" width="13" height="12"><path fill-rule="evenodd" clip-rule="evenodd" d="M10.97 6.671c1.375-1.457 1.375-3.82 0-5.278C9.598-.06 7.377-.064 6 1.383c-1.376-1.447-3.597-1.444-4.969.01-1.375 1.458-1.375 3.82 0 5.278l4.583 4.86a.524.524 0 00.771 0l4.584-4.86zm-.772-.817L6 10.304l-4.196-4.45c-.95-1.006-.95-2.637 0-3.643a2.334 2.334 0 013.436 0c.114.12.216.254.306.398a.529.529 0 00.91 0 2.55 2.55 0 01.306-.398 2.334 2.334 0 013.436 0c.95 1.006.95 2.637 0 3.643z" fill="#fff"/></mask></svg>