<svg width="12" height="12" fill="none" xmlns="http://www.w3.org/2000/svg"><path fill-rule="evenodd" clip-rule="evenodd" d="M1.983 7.675H.545c-.3 0-.545-.229-.545-.512V1.112C0 .829.244.6.545.6h8.926c.301 0 .546.23.546.512v6.051c0 .283-.245.512-.546.512H6.175L2.846 9.907c-.361.242-.863 0-.863-.416V7.675zm8.926-4.701c0-.283.244-.512.545-.512.302 0 .546.23.546.512v6.051c0 .283-.244.512-.546.512h-1.438v1.35c0 .409-.485.653-.848.426L6.332 9.537H6c-.301 0-.545-.23-.545-.512 0-.283.244-.512.545-.512h.496c.108 0 .213.03.302.086L8.926 9.93v-.905c0-.283.244-.512.545-.512h1.438v-5.54zm-9.818-1.35h7.835v5.027H6a.57.57 0 00-.317.096L3.074 8.496V7.163c0-.283-.244-.512-.545-.512H1.09V1.624z" fill="#2296F9"/><mask id="mask0" maskUnits="userSpaceOnUse" x="0" y="0" width="12" height="12"><path fill-rule="evenodd" clip-rule="evenodd" d="M1.983 7.675H.545c-.3 0-.545-.229-.545-.512V1.112C0 .829.244.6.545.6h8.926c.301 0 .546.23.546.512v6.051c0 .283-.245.512-.546.512H6.175L2.846 9.907c-.361.242-.863 0-.863-.416V7.675zm8.926-4.701c0-.283.244-.512.545-.512.302 0 .546.23.546.512v6.051c0 .283-.244.512-.546.512h-1.438v1.35c0 .409-.485.653-.848.426L6.332 9.537H6c-.301 0-.545-.23-.545-.512 0-.283.244-.512.545-.512h.496c.108 0 .213.03.302.086L8.926 9.93v-.905c0-.283.244-.512.545-.512h1.438v-5.54zm-9.818-1.35h7.835v5.027H6a.57.57 0 00-.317.096L3.074 8.496V7.163c0-.283-.244-.512-.545-.512H1.09V1.624z" fill="#fff"/></mask></svg>